<svg width="56" height="56" viewBox="0 0 56 56" fill="none" xmlns="http://www.w3.org/2000/svg">
<path d="M55.0098 11.8799C55.0098 9.4355 54.2153 7.29661 52.6264 5.46328C52.5042 5.21883 52.3514 5.09661 52.1681 5.09661C51.9848 5.09661 51.8014 5.15773 51.6181 5.27995C51.4348 5.40217 51.3431 5.5855 51.3431 5.82995C51.3431 6.07439 51.4042 6.25772 51.5264 6.37995C52.7487 7.96884 53.3598 9.80217 53.3598 11.8799C53.3598 14.2022 52.5348 16.1883 50.8848 17.8383C49.2348 19.4883 47.2487 20.3133 44.9264 20.3133C42.6042 20.3133 40.6181 19.4883 38.9681 17.8383C37.3181 16.1883 36.4931 14.2022 36.4931 11.8799C36.4931 9.55772 37.3181 7.57161 38.9681 5.92161C40.6181 4.27161 42.6042 3.44661 44.9264 3.44661C46.5153 3.44661 47.982 3.81328 49.3264 4.54661C49.4487 4.66883 49.632 4.69939 49.8764 4.63828C50.1209 4.57717 50.3042 4.45495 50.4264 4.27161C50.5487 4.08828 50.5792 3.90495 50.5181 3.72161C50.457 3.53828 50.3042 3.3855 50.0598 3.26328C48.4709 2.2855 46.7903 1.79661 45.0181 1.79661C43.2459 1.79661 41.657 2.19384 40.2514 2.98828C38.8459 3.78273 37.6542 4.79106 36.6764 6.01328C33.7431 4.91328 30.6264 4.36328 27.3264 4.36328C22.9264 4.36328 18.7709 5.46328 14.8598 7.66328C14.7375 7.7855 14.6459 7.93828 14.5848 8.12161C14.5237 8.30495 14.5542 8.51884 14.6764 8.76328C14.7987 9.00772 14.982 9.12995 15.2264 9.12995C15.4709 9.12995 15.6542 9.06884 15.7764 8.94661C17.8542 7.72439 20.1153 6.86884 22.5598 6.37995C21.0931 7.72439 19.8403 9.58828 18.8014 11.9716C17.7625 14.3549 16.9375 17.1355 16.3264 20.3133H5.87643C7.46532 16.5244 9.90977 13.3466 13.2098 10.7799C13.332 10.6577 13.3931 10.4744 13.3931 10.2299C13.3931 9.9855 13.332 9.77161 13.2098 9.58828C13.0875 9.40495 12.9348 9.31328 12.7514 9.31328C12.5681 9.31328 12.3542 9.37439 12.1098 9.49661C9.78754 11.3299 7.8931 13.4688 6.42643 15.9133H6.2431C5.26532 16.1577 4.28754 16.6466 3.30977 17.3799C1.35421 18.8466 0.25421 20.5577 0.00976562 22.5133V30.5799C0.00976562 33.1466 1.2931 35.2244 3.85977 36.8133C4.5931 39.2577 5.72365 41.5188 7.25143 43.5966C8.77921 45.6744 10.5209 47.4466 12.4764 48.9133C16.8764 52.2133 21.8264 53.8633 27.3264 53.8633C30.6264 53.8633 33.8042 53.2522 36.8598 52.0299C39.9153 50.8077 42.6042 49.0049 44.9264 46.6216C47.2487 44.2383 49.0209 41.5494 50.2431 38.5549C51.4653 35.5605 52.0764 32.4744 52.0764 29.2966C52.0764 26.1188 51.5875 23.0633 50.6098 20.1299C51.9542 19.2744 53.0237 18.1133 53.8181 16.6466C54.6125 15.1799 55.0098 13.5911 55.0098 11.8799ZM39.4264 20.3133H38.3264L38.1431 19.3966C38.632 19.6411 39.0598 19.9466 39.4264 20.3133ZM35.9431 7.47995C35.4542 8.3355 35.1487 9.25217 35.0264 10.2299C34.1709 8.64106 33.2542 7.35772 32.2764 6.37995C33.4987 6.62439 34.7209 6.99106 35.9431 7.47995ZM20.3598 12.4299C21.3375 10.3522 22.4375 8.73272 23.6598 7.57161C24.882 6.4105 26.1348 5.82995 27.4181 5.82995C28.7014 5.82995 29.9542 6.4105 31.1764 7.57161C32.3987 8.73272 33.4987 10.3522 34.4764 12.4299C34.7209 13.2855 35.0264 14.1411 35.3931 14.9966V15.1799C36.0042 16.7688 36.432 18.4799 36.6764 20.3133H17.9764C18.4653 17.3799 19.2598 14.7522 20.3598 12.4299ZM16.1431 21.9633C15.7764 24.2855 15.5931 26.6688 15.5931 29.1133C15.5931 30.3355 15.6542 31.5577 15.7764 32.7799C11.3764 31.9244 8.01532 30.8244 5.6931 29.4799C5.08199 29.1133 4.5931 28.7466 4.22643 28.3799C4.22643 26.1799 4.5931 24.0411 5.32643 21.9633H16.1431ZM1.65977 22.6966C1.78199 21.1077 2.63754 19.7633 4.22643 18.6633L5.1431 18.2966C3.79865 20.9855 3.00421 23.7966 2.75977 26.7299C1.90421 25.5077 1.53754 24.1633 1.65977 22.6966ZM1.65977 30.5799V28.0133C2.3931 29.1133 3.43199 30.0299 4.77643 30.7633C8.68754 33.0855 14.8598 34.6133 23.2931 35.3466C23.5375 35.3466 23.7209 35.2549 23.8431 35.0716C23.9653 34.8883 24.057 34.7049 24.1181 34.5216C24.1792 34.3383 24.1181 34.1549 23.9348 33.9716C23.7514 33.7883 23.5987 33.6966 23.4764 33.6966C21.2764 33.5744 19.2598 33.3299 17.4264 32.9633C17.3042 31.7411 17.2431 30.4577 17.2431 29.1133C17.2431 26.6688 17.4264 24.2855 17.7931 21.9633H37.0431C37.4098 24.2855 37.5931 26.6688 37.5931 29.1133C37.5931 30.5799 37.532 31.9855 37.4098 33.3299L33.7431 31.1299C33.4987 30.8855 33.2542 30.8549 33.0098 31.0383C32.7653 31.2216 32.6431 31.4355 32.6431 31.6799V34.0633C30.4431 34.0633 28.4264 34.0022 26.5931 33.8799C26.3487 33.8799 26.1348 33.9411 25.9514 34.0633C25.7681 34.1855 25.6764 34.3688 25.6764 34.6133C25.6764 34.8577 25.7681 35.0716 25.9514 35.2549C26.1348 35.4383 26.3487 35.5299 26.5931 35.5299C28.6709 35.6522 30.932 35.7133 33.3764 35.7133C33.6209 35.7133 33.8042 35.6216 33.9264 35.4383C34.0487 35.2549 34.1098 35.0411 34.1098 34.7966V33.3299L40.3431 37.1799L34.1098 41.9466V40.8466C34.1098 40.6022 34.0487 40.4188 33.9264 40.2966C33.8042 40.1744 33.6209 40.1133 33.3764 40.1133C20.0542 39.9911 10.8875 38.6466 5.87643 36.0799C4.0431 35.2244 2.82088 34.1855 2.20977 32.9633C1.8431 32.2299 1.65977 31.4355 1.65977 30.5799ZM27.3264 52.2133C25.6153 52.2133 23.9653 51.2049 22.3764 49.1883C20.7875 47.1716 19.5653 44.3911 18.7098 40.8466C22.7431 41.3355 27.3875 41.5799 32.6431 41.5799V43.5966C32.6431 43.9633 32.7653 44.2077 33.0098 44.3299H33.3764C33.4987 44.3299 33.682 44.2688 33.9264 44.1466L35.3931 43.0466C34.5375 45.6133 33.4987 47.6911 32.2764 49.2799C30.8098 51.2355 29.1598 52.2133 27.3264 52.2133ZM13.5764 47.6299C10.1542 45.1855 7.58754 41.9466 5.87643 37.9133C8.68754 39.1355 12.3542 40.0522 16.8764 40.6633C18.2209 45.7966 20.1153 49.5244 22.5598 51.8466C19.2598 51.1133 16.2653 49.7077 13.5764 47.6299ZM43.8264 45.4299C40.5264 48.7299 36.6764 50.8688 32.2764 51.8466C32.7653 51.3577 33.1931 50.8077 33.5598 50.1966C35.2709 47.9966 36.6153 45.0022 37.5931 41.2133L41.9931 37.9133H48.7764C47.6764 40.7244 46.0264 43.2299 43.8264 45.4299ZM49.3264 36.2633H41.9931L38.8764 34.2466C38.9987 32.5355 39.0598 30.8244 39.0598 29.1133C39.0598 26.6688 38.9375 24.2855 38.6931 21.9633H49.3264C50.182 24.2855 50.6098 26.6688 50.6098 29.1133C50.6098 31.5577 50.182 33.9411 49.3264 36.2633ZM44.9264 18.1133C45.1709 18.1133 45.3542 18.0216 45.4764 17.8383C45.5987 17.6549 45.6598 17.5022 45.6598 17.3799V16.8299C46.3931 16.5855 46.9431 16.2188 47.3098 15.7299C47.6764 15.2411 47.9209 14.6911 48.0431 14.0799C48.1653 13.4688 48.0431 12.8577 47.6764 12.2466C47.3098 11.6355 46.8209 11.2077 46.2098 10.9633H45.6598V8.39661L46.2098 8.76328C46.332 8.8855 46.4848 8.94661 46.6681 8.94661C46.8514 8.94661 47.0348 8.85495 47.2181 8.67161C47.4014 8.48828 47.4931 8.27439 47.4931 8.02995C47.4931 7.7855 47.432 7.60217 47.3098 7.47995C46.9431 7.11328 46.3931 6.86884 45.6598 6.74661V6.37995C45.6598 6.1355 45.5987 5.95217 45.4764 5.82995C45.3542 5.70773 45.1709 5.64661 44.9264 5.64661C44.682 5.64661 44.4987 5.70773 44.3764 5.82995C44.2542 5.95217 44.1931 6.1355 44.1931 6.37995V6.74661L44.0098 6.92995C43.032 7.17439 42.4209 7.81606 42.1764 8.85495C41.932 9.89384 42.1764 10.7188 42.9098 11.3299C43.2764 11.5744 43.7042 11.7577 44.1931 11.8799V15.1799C43.8264 15.1799 43.5209 15.0883 43.2764 14.9049C43.032 14.7216 42.7875 14.6605 42.5431 14.7216C42.2987 14.7827 42.1153 14.9049 41.9931 15.0883C41.8709 15.2716 41.8403 15.4549 41.9014 15.6383C41.9625 15.8216 42.0542 15.9744 42.1764 16.0966C42.9098 16.5855 43.582 16.8299 44.1931 16.8299V17.3799C44.1931 17.5022 44.2542 17.6549 44.3764 17.8383C44.4987 18.0216 44.682 18.1133 44.9264 18.1133ZM46.3931 13.8966C46.3931 14.3855 46.1487 14.7522 45.6598 14.9966V12.6133C46.2709 12.8577 46.5153 13.2855 46.3931 13.8966ZM44.0098 10.0466C43.7653 9.92439 43.6737 9.7105 43.7348 9.40495C43.7959 9.09939 43.9487 8.82439 44.1931 8.57995V10.0466H44.0098Z" fill="#231F20"/>
</svg>
