<svg width="56" height="56" viewBox="0 0 56 56" fill="none" xmlns="http://www.w3.org/2000/svg">
<path d="M3.12663 37.07H26.0433L25.6766 37.2533C25.4322 37.4977 25.31 37.7727 25.31 38.0783C25.31 38.3839 25.4322 38.6589 25.6766 38.9033L27.1433 40.0033L26.41 41.6533C26.1655 41.8977 26.135 42.1727 26.3183 42.4783C26.5016 42.7839 26.7155 42.9977 26.96 43.12L28.7933 43.4866V45.32C28.7933 45.5644 28.885 45.7783 29.0683 45.9616C29.2516 46.145 29.4044 46.2366 29.5266 46.2366L27.51 51.37C27.2655 51.9811 27.3572 52.5005 27.785 52.9283C28.2127 53.3561 28.7322 53.5089 29.3433 53.3866L31.1766 52.6533L32.0933 54.3033C32.3377 54.9144 32.7655 55.22 33.3766 55.22C33.9877 55.22 34.4155 54.9144 34.66 54.3033L35.5766 52.1033L36.4933 54.12C36.7377 54.7311 37.1655 55.0366 37.7766 55.0366H37.96C38.5711 55.0366 38.9989 54.7922 39.2433 54.3033L39.9766 52.6533L41.81 53.2033C42.4211 53.3255 42.9405 53.1727 43.3683 52.745C43.7961 52.3172 43.8877 51.7977 43.6433 51.1866L41.6266 46.2366C42.1155 46.1144 42.36 45.8089 42.36 45.32V43.4866L44.1933 43.12C44.56 42.9977 44.8044 42.7839 44.9266 42.4783C45.0489 42.1727 45.0489 41.8977 44.9266 41.6533L44.01 40.0033L45.4766 38.9033C45.7211 38.6589 45.8433 38.3839 45.8433 38.0783C45.8433 37.7727 45.7211 37.4977 45.4766 37.2533L45.2933 37.07H51.8933C52.1377 37.07 52.3516 36.9783 52.535 36.795C52.7183 36.6116 52.81 36.3977 52.81 36.1533V1.13663C52.81 0.892193 52.7183 0.678303 52.535 0.494968C52.3516 0.311638 52.1377 0.219971 51.8933 0.219971H3.12663C2.88218 0.219971 2.66829 0.311638 2.48496 0.494968C2.30163 0.678303 2.20996 0.892193 2.20996 1.13663V36.1533C2.20996 36.3977 2.30163 36.6116 2.48496 36.795C2.66829 36.9783 2.88218 37.07 3.12663 37.07ZM33.3766 52.8366L32.6433 51.7366C32.5211 51.37 32.3072 51.095 32.0016 50.9116C31.6961 50.7283 31.36 50.6977 30.9933 50.82L29.5266 51.37L31.7266 45.87H31.91L32.6433 47.52C32.7655 47.7644 32.9489 47.9477 33.1933 48.07C33.4377 48.1922 33.6822 48.1922 33.9266 48.07L34.66 49.5366L33.3766 52.8366ZM40.3433 50.6366C39.9766 50.6366 39.61 50.6977 39.2433 50.82C38.8766 50.9422 38.6322 51.1866 38.51 51.5533L37.96 52.6533L35.3933 46.7866L35.5766 46.6033L37.0433 47.8866C37.2877 48.0089 37.5322 48.07 37.7766 48.07H37.96C38.2044 48.07 38.3877 47.8866 38.51 47.52L39.4266 45.87L41.6266 51.1866L40.3433 50.6366ZM41.9933 40.1866L42.7266 41.47L41.26 41.8366C41.0155 41.8366 40.8322 41.9283 40.71 42.1116C40.5877 42.295 40.5266 42.5089 40.5266 42.7533V44.22L39.06 43.8533C38.8155 43.7311 38.6016 43.7311 38.4183 43.8533C38.235 43.9755 38.0822 44.1589 37.96 44.4033L37.41 45.6866L36.31 44.77C36.0655 44.6477 35.8211 44.5866 35.5766 44.5866C35.3322 44.5866 35.1488 44.6477 35.0266 44.77L33.9266 45.6866L33.1933 44.4033C33.0711 44.0366 32.7655 43.8533 32.2766 43.8533L30.6266 44.22L30.81 42.7533C30.81 42.5089 30.7183 42.295 30.535 42.1116C30.3516 41.9283 30.1377 41.8366 29.8933 41.8366L28.4266 41.47L29.16 40.1866C29.2822 39.9422 29.3127 39.6977 29.2516 39.4533C29.1905 39.2089 29.0989 39.0255 28.9766 38.9033L27.6933 37.9866L28.9766 37.07C29.0989 36.9477 29.1905 36.795 29.2516 36.6116C29.3127 36.4283 29.2822 36.2144 29.16 35.97L28.4266 34.6866L29.8933 34.32C30.1377 34.32 30.3516 34.2283 30.535 34.045C30.7183 33.8616 30.81 33.6477 30.81 33.4033L30.6266 31.9366L32.0933 32.3033C32.3377 32.3033 32.5822 32.2727 32.8266 32.2116C33.0711 32.1505 33.1933 31.9977 33.1933 31.7533L33.9266 30.2866L35.0266 31.3866C35.1488 31.5089 35.3322 31.57 35.5766 31.57C35.8211 31.57 36.0655 31.5089 36.31 31.3866L37.41 30.2866L37.96 31.7533C38.0822 31.9977 38.235 32.1505 38.4183 32.2116C38.6016 32.2727 38.8155 32.3033 39.06 32.3033L40.5266 31.9366V33.4033C40.5266 33.6477 40.5877 33.8616 40.71 34.045C40.8322 34.2283 41.0155 34.32 41.26 34.32L42.7266 34.6866L41.9933 35.97C41.8711 36.2144 41.8405 36.4283 41.9016 36.6116C41.9627 36.795 42.1155 36.9477 42.36 37.07L43.46 37.9866L42.36 38.9033C42.1155 39.0255 41.9627 39.2089 41.9016 39.4533C41.8405 39.6977 41.8711 39.9422 41.9933 40.1866ZM4.04329 2.0533H50.9766V35.2366H44.56L44.9266 34.5033C45.0489 34.1366 45.0489 33.8005 44.9266 33.495C44.8044 33.1894 44.56 33.0366 44.1933 33.0366L42.36 32.67V30.8366C42.36 30.47 42.2377 30.195 41.9933 30.0116C41.7489 29.8283 41.5044 29.7366 41.26 29.7366L39.4266 30.2866L38.51 28.6366C38.3877 28.27 38.1739 28.0561 37.8683 27.995C37.5627 27.9339 37.2877 28.0255 37.0433 28.27L35.5766 29.37L34.11 28.27C33.8655 28.0255 33.5905 27.9339 33.285 27.995C32.9794 28.0561 32.7655 28.27 32.6433 28.6366L31.91 30.2866L30.0766 29.7366C29.71 29.7366 29.4044 29.8283 29.16 30.0116C28.9155 30.195 28.7933 30.47 28.7933 30.8366V32.67L26.96 33.0366C26.7155 33.1589 26.5016 33.3422 26.3183 33.5866C26.135 33.8311 26.1655 34.1366 26.41 34.5033L26.7766 35.2366H4.04329V2.0533ZM8.25996 17.27H46.5766C46.8211 17.27 47.035 17.1783 47.2183 16.995C47.4016 16.8116 47.4933 16.5977 47.4933 16.3533C47.4933 16.1089 47.4016 15.895 47.2183 15.7116C47.035 15.5283 46.8211 15.4366 46.5766 15.4366H8.25996C8.01552 15.4366 7.80163 15.5283 7.61829 15.7116C7.43496 15.895 7.34329 16.1089 7.34329 16.3533C7.34329 16.5977 7.43496 16.8116 7.61829 16.995C7.80163 17.1783 8.01552 17.27 8.25996 17.27ZM8.25996 12.32H28.2433C28.4877 12.32 28.7016 12.2589 28.885 12.1366C29.0683 12.0144 29.16 11.8005 29.16 11.495C29.16 11.1894 29.0683 10.945 28.885 10.7616C28.7016 10.5783 28.4877 10.4866 28.2433 10.4866H8.25996C8.01552 10.4866 7.80163 10.5783 7.61829 10.7616C7.43496 10.945 7.34329 11.1894 7.34329 11.495C7.34329 11.8005 7.43496 12.0144 7.61829 12.1366C7.80163 12.2589 8.01552 12.32 8.25996 12.32ZM8.25996 22.22H46.5766C46.8211 22.22 47.035 22.1283 47.2183 21.945C47.4016 21.7616 47.4933 21.5477 47.4933 21.3033C47.4933 21.0589 47.4016 20.845 47.2183 20.6616C47.035 20.4783 46.8211 20.3866 46.5766 20.3866H8.25996C8.01552 20.3866 7.80163 20.4783 7.61829 20.6616C7.43496 20.845 7.34329 21.0589 7.34329 21.3033C7.34329 21.5477 7.43496 21.7616 7.61829 21.945C7.80163 22.1283 8.01552 22.22 8.25996 22.22ZM47.4933 26.07C47.4933 25.8255 47.4016 25.6116 47.2183 25.4283C47.035 25.245 46.8211 25.1533 46.5766 25.1533H8.25996C8.01552 25.1533 7.80163 25.245 7.61829 25.4283C7.43496 25.6116 7.34329 25.8255 7.34329 26.07C7.34329 26.3144 7.43496 26.5283 7.61829 26.7116C7.80163 26.895 8.01552 26.9866 8.25996 26.9866H46.5766C46.8211 26.9866 47.035 26.895 47.2183 26.7116C47.4016 26.5283 47.4933 26.3144 47.4933 26.07ZM35.5766 32.8533C34.11 32.8533 32.8877 33.3422 31.91 34.32C30.9322 35.2977 30.4433 36.52 30.4433 37.9866C30.4433 39.4533 30.9322 40.7061 31.91 41.745C32.8877 42.7839 34.11 43.3033 35.5766 43.3033C37.0433 43.3033 38.2961 42.7839 39.335 41.745C40.3739 40.7061 40.8933 39.4533 40.8933 37.9866C40.8933 36.52 40.3739 35.2977 39.335 34.32C38.2961 33.3422 37.0433 32.8533 35.5766 32.8533ZM35.5766 41.47C34.5989 41.47 33.8044 41.1339 33.1933 40.4616C32.5822 39.7894 32.2766 38.995 32.2766 38.0783C32.2766 37.1616 32.5822 36.3672 33.1933 35.695C33.8044 35.0227 34.5989 34.6866 35.5766 34.6866C36.5544 34.6866 37.3794 35.0227 38.0516 35.695C38.7239 36.3672 39.06 37.1616 39.06 38.0783C39.06 38.995 38.7239 39.7894 38.0516 40.4616C37.3794 41.1339 36.5544 41.47 35.5766 41.47Z" fill="#231F20"/>
</svg>
