<svg width="70" height="22" viewBox="0 0 70 22" fill="none" xmlns="http://www.w3.org/2000/svg">
<g clip-path="url(#clip0_55_735)">
<path d="M61.1138 0.000184337C62.0887 0.00311085 63.0225 0.395534 63.7104 1.09131L67.8865 5.3427C68.9235 6.39801 69.2291 7.97769 68.6615 9.34799C68.475 9.79809 68.2063 10.1966 67.8773 10.5289L67.8865 10.5387C68.9235 11.594 69.2291 13.1737 68.6615 14.544C68.4752 14.9936 68.2069 15.3918 67.8784 15.7238L67.8865 15.7321C68.9235 16.7875 69.2291 18.3671 68.6615 19.7374C68.0938 21.1077 66.7641 22 65.29 22H53.2323C52.2574 21.9976 51.3233 21.6051 50.6358 20.9089L46.4596 16.6575C45.4227 15.6022 45.117 14.0225 45.6847 12.6522C45.871 12.2024 46.1395 11.804 46.4683 11.4719L46.4596 11.4628C45.4227 10.4075 45.117 8.82778 45.6847 7.45748C45.871 7.00763 46.1395 6.6093 46.4683 6.27715L46.4596 6.26804C45.4089 5.22036 45.1016 3.63174 45.6851 2.2634C46.2404 0.882958 47.5776 -0.0147836 49.0562 0.000184337H61.1138ZM46.8038 13.1229C46.4247 14.0386 46.6292 15.094 47.3222 15.799L51.4983 20.0491C51.9571 20.5148 52.581 20.7775 53.2323 20.7791H65.29C66.275 20.7796 67.1637 20.1835 67.5429 19.2678C67.9221 18.3521 67.7174 17.2966 67.024 16.5919L66.8763 16.4416C66.3912 16.6773 65.851 16.8066 65.29 16.8066L53.2323 16.8053C52.2574 16.8029 51.3233 16.4104 50.6358 15.7142L47.3215 12.3398C47.1045 12.5607 46.9272 12.8249 46.8038 13.1229ZM53.1925 11.6095L49.0562 11.6106C48.831 11.6106 48.6108 11.6418 48.4007 11.7009L51.4983 14.8544C51.9571 15.3201 52.581 15.5827 53.2323 15.5844H65.29C65.5155 15.5845 65.736 15.5533 65.9465 15.4942L62.8478 12.338C62.412 11.8956 61.8272 11.6364 61.2114 11.6102L53.2323 11.6106L53.1925 11.6095ZM65.29 11.6106L63.8379 11.6105L67.0252 14.8558C67.2422 14.635 67.4195 14.371 67.5429 14.0731C67.9221 13.1574 67.7174 12.1019 67.024 11.3972L66.8753 11.2461C66.3904 11.4815 65.8506 11.6106 65.29 11.6106ZM46.8038 7.92815C46.4247 8.84383 46.6292 9.89928 47.3222 10.6043L47.4701 10.7544C47.9552 10.5188 48.4952 10.3896 49.0562 10.3896L50.5085 10.3895L47.3213 7.14536C47.1043 7.36614 46.9271 7.63025 46.8038 7.92815ZM61.1138 6.41583H49.0562C48.8308 6.41588 48.6105 6.44714 48.4002 6.50629L51.4983 9.65964C51.9571 10.1254 52.581 10.388 53.2323 10.3896H65.29C65.5153 10.3898 65.7357 10.3586 65.946 10.2996L62.8478 7.14582C62.3891 6.68009 61.7652 6.41743 61.1138 6.41583ZM61.1138 1.22111H49.0562C48.0685 1.21234 47.1757 1.81202 46.8041 2.73378C46.416 3.64834 46.6214 4.70885 47.3222 5.40953L47.4701 5.55972C47.9552 5.32412 48.4952 5.19491 49.0562 5.19491H61.1138C62.0887 5.19783 63.0225 5.59026 63.7104 6.28603L67.025 9.66127C67.2421 9.44051 67.4195 9.17635 67.5429 8.87835C67.9221 7.96267 67.7174 6.90714 67.024 6.20249L62.8478 1.9511C62.3891 1.48537 61.7652 1.22271 61.1138 1.22111Z" fill="black"/>
<path d="M65.9509 10.3034C65.7353 10.3615 65.5131 10.3905 65.2899 10.3896H53.2336C52.5822 10.3875 51.9582 10.1254 51.4983 9.66084L48.3965 6.50313C48.6121 6.44514 48.8343 6.41619 49.0574 6.41701H61.1151C61.7662 6.41843 62.39 6.68059 62.8491 7.14573L65.9509 10.3034Z" fill="white" fill-opacity="0.3"/>
<path d="M65.9509 10.3034C65.7353 10.3615 65.5131 10.3905 65.2899 10.3896H53.2336C52.5822 10.3875 51.9582 10.1254 51.4983 9.66084L48.3965 6.50313C48.6121 6.44514 48.8343 6.41619 49.0574 6.41701H61.1151C61.7662 6.41843 62.39 6.68059 62.8491 7.14573L65.9509 10.3034Z" fill="url(#paint0_linear_55_735)" fill-opacity="0.4"/>
<path d="M65.9509 15.4984C65.7353 15.5565 65.5131 15.5854 65.2899 15.5845H53.2336C52.5822 15.5824 51.9582 15.3204 51.4983 14.8558L48.3965 11.6955C48.6121 11.6375 48.8343 11.6086 49.0574 11.6094H61.1151C61.7662 11.6108 62.39 11.873 62.8491 12.3381L65.9509 15.4984Z" fill="white" fill-opacity="0.2"/>
<path d="M65.9509 15.4984C65.7353 15.5565 65.5131 15.5854 65.2899 15.5845H53.2336C52.5822 15.5824 51.9582 15.3204 51.4983 14.8558L48.3965 11.6955C48.6121 11.6375 48.8343 11.6086 49.0574 11.6094H61.1151C61.7662 11.6108 62.39 11.873 62.8491 12.3381L65.9509 15.4984Z" fill="url(#paint1_linear_55_735)" fill-opacity="0.4"/>
<path fill-rule="evenodd" clip-rule="evenodd" d="M33.2754 12.313C33.4005 12.928 33.7084 13.0912 34.2952 13.1328C34.691 13.1609 35.091 13.127 35.4875 13.1495C36.0801 13.1828 36.6315 13.3517 37.0929 13.7486C37.4926 14.0922 37.7258 14.5327 37.7974 15.054C37.9015 15.8115 37.9126 16.5736 37.7869 17.3273C37.6616 18.0792 37.2117 18.7086 36.3287 18.9667C35.9196 19.0863 35.503 19.1128 35.0825 19.0967C34.9309 19.0909 34.886 19.1438 34.8948 19.2901C34.9044 19.4469 34.8943 19.6033 34.8597 19.7602C34.7935 20.0606 34.6071 20.2312 34.3207 20.2943C34.0977 20.3434 33.8715 20.3319 33.6639 20.2292C33.426 20.1115 33.3212 19.8969 33.2992 19.6411C33.2871 19.501 33.2909 19.3592 33.2934 19.2183C33.2949 19.1307 33.2592 19.0932 33.1736 19.0997C33.1457 19.1018 33.1177 19.0997 33.0896 19.0997L27.7159 19.0998C27.5408 19.1011 27.5374 19.117 27.5332 19.3185C27.5229 19.8063 27.4685 20.2837 27.2506 20.7298C26.9411 21.364 26.4152 21.7103 25.7533 21.8711C25.1426 22.0194 24.5192 22.0107 23.8983 21.9855C23.36 21.9637 23.0928 21.4297 23.3724 20.9619C23.4709 20.7973 23.6344 20.7352 23.8147 20.7297C24.1001 20.7212 24.3858 20.7233 24.6714 20.7248C24.8862 20.726 25.0975 20.6996 25.2981 20.6256C25.7625 20.4543 25.9142 20.0639 25.9559 19.6158C26.0038 19.1005 25.9955 19.1034 25.486 19.0986C24.9941 19.094 24.5017 19.1243 24.012 19.0314C23.0221 18.8436 22.2896 18.2459 22.1306 17.1155C22.0389 16.4641 22.0365 15.8101 22.1389 15.1609C22.2712 14.3219 22.7586 13.5843 23.8128 13.3375C24.9314 13.0756 26.0229 13.2109 27.0913 13.6038C27.4027 13.7183 27.5446 13.9364 27.5367 14.2767C27.5241 14.8235 27.5333 15.3707 27.5333 15.9178C27.5344 16.4874 27.5387 17.0571 27.5316 17.6266C27.5297 17.7792 27.5747 17.8366 27.7314 17.8354C28.4813 17.8295 29.2313 17.8332 29.9812 17.8317C30.0334 17.8316 30.1025 17.8542 30.1303 17.7881C30.1531 17.7339 30.1003 17.6966 30.0742 17.6549C29.9125 17.3973 29.8271 17.1107 29.8047 16.8121C29.7736 16.3961 29.7781 15.978 29.7976 15.5608C29.8492 14.4646 30.5653 13.6257 31.6357 13.4052C31.9701 13.3362 31.9667 13.3374 31.8539 13.0081C31.8013 12.8544 31.752 12.6981 31.7473 12.5322C31.7341 12.0618 31.9221 11.821 32.3873 11.7707C32.9604 11.709 33.1879 11.8827 33.2754 12.313ZM9.86791 13.3918C10.1226 13.535 10.2177 13.7724 10.2192 14.0449L10.2224 15.2553L10.2225 16.8774L10.2228 17.2892C10.2234 17.5612 10.3257 17.6804 10.6091 17.7048C10.8384 17.7245 11.0699 17.7258 11.3005 17.7276C11.7062 17.731 12.1122 17.7243 12.5178 17.731C12.6686 17.7335 12.7229 17.6899 12.7217 17.5344C12.7147 16.6121 12.717 15.6899 12.7196 14.7677C12.72 14.5988 12.7139 14.4296 12.7853 14.2657C12.883 14.0413 13.0527 13.9214 13.2948 13.8891C13.3394 13.8831 13.3847 13.8813 13.4297 13.8797C14.0125 13.8589 14.2792 14.0939 14.2845 14.6639C14.2933 15.608 14.2879 16.5523 14.2885 17.4965C14.2887 17.7276 14.2888 17.7289 14.534 17.7284C14.7087 17.7281 14.8835 17.7284 15.058 17.7204C15.6356 17.6937 15.9528 17.3951 15.9654 16.8289C15.9812 16.1265 15.9717 15.4237 15.9728 14.7211C15.9731 14.5727 15.9776 14.4266 16.0342 14.2841C16.1209 14.0663 16.2761 13.9362 16.5093 13.8854C16.6839 13.8474 16.8554 13.8535 17.0289 13.8886C17.2723 13.9381 17.4762 14.1323 17.5261 14.3713C17.5564 14.5168 17.5737 14.6636 17.5709 14.8127C17.5561 15.619 17.6119 16.4269 17.5115 17.2312C17.5035 17.2955 17.523 17.3445 17.5703 17.3934C17.8936 17.7271 18.5474 17.8199 18.9441 17.5833C19.1366 17.4686 19.2536 17.3023 19.2979 17.0857C19.3257 16.9503 19.3369 16.8145 19.3367 16.6767C19.3358 15.8972 19.3362 15.1177 19.3365 14.3382C19.3365 14.2504 19.3418 14.1625 19.3403 14.0748C19.3271 13.3243 19.9854 13.197 20.4763 13.3515C20.7503 13.4376 20.8798 13.6425 20.9068 13.9066C20.9269 14.1025 20.9238 14.3013 20.9224 14.4987C20.9171 15.2891 20.958 16.0809 20.9034 16.8695C20.8544 17.5763 20.5823 18.1921 19.9569 18.6072C19.4363 18.9529 18.8543 19.0241 18.2435 18.9238C17.8083 18.8523 17.4139 18.6875 17.0718 18.4132C17.0017 18.3569 16.9503 18.3574 16.8822 18.4171C16.4456 18.7999 15.9159 18.952 15.3445 18.9559C13.8735 18.9659 12.4023 18.963 10.9312 18.9596C10.5488 18.9586 10.1848 18.8679 9.84965 18.6832C9.78328 18.6467 9.72467 18.6115 9.64773 18.6587C9.27063 18.8895 8.84173 18.9476 8.41511 18.9502C6.44811 18.9626 4.48082 18.9697 2.51397 18.95C1.85867 18.9434 1.24846 18.75 0.787551 18.2482C0.503879 17.9396 0.354209 17.5698 0.288798 17.1691C0.213353 16.7072 0.215154 16.2418 0.225198 15.7766L0.235434 15.3116C0.240312 15.0203 0.30565 14.7279 0.626868 14.6026C1.11934 14.4106 1.82563 14.5151 1.83192 15.3027C1.83561 15.7693 1.83635 16.2359 1.83302 16.7025C1.83177 16.881 1.85948 17.0547 1.9263 17.2176C2.06422 17.5539 2.35624 17.689 2.70067 17.7092C3.08833 17.7319 3.47799 17.7264 3.86684 17.7283C4.40225 17.7309 4.93774 17.7289 5.47323 17.7289V17.7195L7.26553 17.7209L8.16167 17.7174C8.52583 17.7147 8.6058 17.6267 8.60654 17.2732C8.60854 16.2631 8.60713 15.2531 8.60869 14.243C8.60883 14.139 8.60684 14.0326 8.62716 13.9314C8.73943 13.3746 9.35778 13.1051 9.86791 13.3918ZM24.6106 14.5502C24.011 14.6375 23.6887 14.9935 23.6773 15.6074C23.6699 16.0014 23.6699 16.3959 23.6781 16.7901C23.6909 17.4066 24.0748 17.7968 24.6903 17.8187C25.0591 17.8318 25.4285 17.8245 25.7974 17.835C25.9305 17.8388 25.9707 17.7906 25.9689 17.6592C25.9625 17.2031 25.9664 16.7469 25.9665 16.2906V14.9051C25.9829 14.7455 25.9212 14.6583 25.757 14.6189C25.3775 14.5275 24.9985 14.4938 24.6106 14.5502ZM31.4137 14.8019C31.3278 15.5531 31.3364 16.3088 31.4056 17.0611C31.438 17.4137 31.6586 17.6383 31.99 17.7505C32.3602 17.8758 32.7441 17.8146 33.122 17.8345C33.2535 17.8414 33.2974 17.7946 33.2952 17.6609C33.2883 17.2273 33.2926 16.7935 33.2926 16.3598L33.2904 15.143C33.2903 15.1093 33.2881 15.0755 33.2859 15.0418C33.2523 14.5249 33.0347 14.2394 32.5819 14.1181C32.0318 13.9707 31.473 14.2838 31.4137 14.8019ZM34.6133 14.3898C34.4203 14.39 34.408 14.4087 34.4967 14.5764C34.6828 14.9281 34.7928 15.3025 34.8485 15.696C34.9295 16.2689 34.889 16.8448 34.8965 17.4194C34.902 17.8425 34.8976 17.8426 35.3178 17.8195C35.8705 17.7892 36.2348 17.4199 36.2505 16.8659C36.2575 16.6178 36.2517 16.3696 36.2517 16.1215C36.2493 15.862 36.2579 15.6022 36.2474 15.3432C36.2299 14.9124 36.0021 14.6112 35.5954 14.4754C35.276 14.3688 34.943 14.3895 34.6133 14.3898ZM37.7821 0.367748C37.8502 0.517489 37.8783 0.67825 37.8781 0.845563C37.8774 2.02093 37.8777 3.19629 37.8777 4.37173L37.8781 11.1857C37.878 11.3331 37.874 11.4783 37.8326 11.6232C37.7472 11.9226 37.5519 12.1042 37.265 12.1309C36.8476 12.1698 36.5818 12.048 36.4575 11.7483C36.3971 11.6026 36.3727 11.4445 36.3727 11.284L36.3723 1.97692L36.3722 1.85117L36.372 0.858669C36.372 0.714661 36.3955 0.573856 36.4374 0.440571C36.4998 0.241835 36.6291 0.0984236 36.8217 0.0455564C37.2132 -0.0618161 37.6201 0.0109321 37.7821 0.367748ZM4.38112 10.6207C4.86275 10.6228 5.11411 10.8838 5.11578 11.3837C5.1175 11.8784 4.87208 12.1355 4.39586 12.1379C3.88262 12.1406 3.61245 11.8836 3.60948 11.39C3.60643 10.8955 3.88435 10.6185 4.38112 10.6207ZM6.24557 10.6208C6.73169 10.6252 7.00361 10.9048 6.99861 11.395C6.99355 11.8879 6.72254 12.142 6.20625 12.1379C5.72657 12.1341 5.48961 11.8824 5.49238 11.3795C5.49522 10.8714 5.74848 10.6163 6.24557 10.6208ZM33.8655 0.00706015C34.1745 0.0295911 34.4079 0.246507 34.4529 0.554872C34.4721 0.687775 34.4871 0.82274 34.4873 0.956747C34.4895 2.83749 34.4898 4.71831 34.4875 6.59913C34.4871 6.88497 34.4709 7.16999 34.4026 7.45067C34.2419 8.11128 33.787 8.33048 33.2741 8.41788C32.5215 8.54622 31.761 8.49578 31.004 8.47863C30.6936 8.47156 30.3879 8.38254 30.1171 8.21341C30.0261 8.15664 29.957 8.15392 29.859 8.21046C29.4803 8.429 29.0559 8.47465 28.6321 8.48385C28.4832 8.48708 27.7662 8.48943 26.7278 8.49107L26.4497 8.49148C26.3073 8.49168 26.1597 8.49187 26.0075 8.49204L25.6284 8.49244L25.531 8.49254L25.0297 8.49297L24.9268 8.49304L24.4004 8.4934C24.329 8.49344 24.2572 8.49348 24.1849 8.49352L23.0737 8.49399L22.9602 8.49402L19.4135 8.49404C19.3396 8.49402 19.2662 8.494 19.1931 8.49398L18.1302 8.49359C18.0619 8.49356 17.9941 8.49353 17.927 8.4935L17.1524 8.49306L17.0603 8.493L16.4498 8.49254L16.3678 8.49247L15.9786 8.49211C15.9292 8.49205 15.8807 8.492 15.8333 8.49195L15.5617 8.49164C15.5186 8.49158 15.4767 8.49153 15.4359 8.49147L15.2051 8.49114C15.169 8.49108 15.1342 8.49102 15.1006 8.49096L14.9147 8.49061C14.8863 8.49055 14.8593 8.49049 14.8336 8.49043L14.6964 8.49006C14.6162 8.48981 14.5592 8.48956 14.5277 8.4893C14.3744 8.48805 14.325 8.53503 14.3251 8.68987C14.3259 9.18091 14.2676 9.66216 14.0487 10.112C13.7412 10.7438 13.2183 11.0896 12.5595 11.2504C11.9517 11.3987 11.3309 11.3897 10.7127 11.3652C10.1751 11.344 9.90838 10.8174 10.185 10.3485C10.2855 10.1781 10.4538 10.1179 10.6405 10.114C10.9248 10.1079 11.2093 10.1086 11.4937 10.1098C11.7019 10.1108 11.9067 10.0836 12.1011 10.0123C12.5634 9.84263 12.7163 9.45504 12.7582 9.00847C12.8064 8.49313 12.7985 8.49622 12.2926 8.49136C11.8029 8.48658 11.3126 8.51684 10.825 8.4248C9.83561 8.23807 9.10844 7.64042 8.95011 6.5191C8.85855 5.87063 8.85635 5.21959 8.95801 4.57333C9.09009 3.73358 9.5784 3.00257 10.6236 2.75709C11.7315 2.49695 12.8128 2.6317 13.8728 3.0145C14.1971 3.13165 14.3365 3.35556 14.3329 3.7081C14.3221 4.80277 14.3292 5.89758 14.3297 6.99239C14.3298 7.1024 16.9253 7.16186 19.7298 7.19393L20.2688 7.19975C20.3288 7.20036 20.3889 7.20096 20.4489 7.20154L20.8091 7.20493C22.6684 7.22172 24.486 7.22789 25.5772 7.23007L25.8079 7.2305L25.8616 7.23059L26.1052 7.23092C26.1349 7.23096 26.1633 7.23099 26.1905 7.23102L26.6059 7.23118C27.202 7.22956 27.7982 7.23162 28.3942 7.2216C28.8025 7.21483 28.887 7.12095 28.8879 6.7028C28.8882 6.56164 28.8884 6.43423 28.8886 6.31665L28.8889 5.98942L28.889 5.91406L28.8892 4.41223C28.8893 4.29442 28.8909 4.17639 28.8972 4.05873C28.9154 3.71826 29.0756 3.49155 29.4012 3.40776C29.816 3.301 30.2661 3.39127 30.4099 3.8424C30.4631 4.00903 30.4617 4.18574 30.4618 4.35981L30.462 4.63297C30.462 4.67583 30.4621 4.71745 30.4621 4.75799L30.4625 6.73454C30.4627 7.08259 30.5552 7.19826 30.8991 7.21093C31.4501 7.2311 32.002 7.25054 32.5533 7.21542C32.7583 7.20239 32.8446 7.12544 32.8765 6.92149C32.8938 6.81126 32.8959 6.69787 32.896 6.58595C32.8974 5.63148 32.8968 4.67708 32.8968 3.72261C32.8968 2.79626 32.8957 1.86991 32.8981 0.943567C32.8985 0.776132 32.8917 0.607002 32.951 0.444352C33.0535 0.163157 33.2657 0.0339353 33.5481 0.00654474C33.6529 -0.00361628 33.7601 -0.00067106 33.8655 0.00706015ZM27.6938 9.48278C28.1913 9.48174 28.4647 9.75061 28.4638 10.24C28.4628 10.7192 28.1829 10.9997 27.7054 11C27.2199 11.0004 26.9581 10.7348 26.9575 10.2414C26.9569 9.73064 27.1965 9.48375 27.6938 9.48278ZM29.6273 9.48279C30.1 9.48509 30.3484 9.74865 30.3467 10.2461C30.345 10.7312 30.0824 11.0002 29.6102 11C29.1216 10.9999 28.8398 10.7202 28.8404 10.2358C28.841 9.73891 29.1113 9.48029 29.6273 9.48279ZM5.67981 2.67061C6.36386 2.71567 7.00897 2.88908 7.5036 3.41711C7.82259 3.75763 7.98918 4.17342 8.06199 4.62811C8.1147 4.95786 8.14069 5.29117 8.1228 5.55975C8.12751 6.18295 8.103 6.73444 7.87265 7.25512C7.59724 7.87766 7.11027 8.24215 6.47709 8.431C5.95772 8.58593 5.42473 8.59602 4.89203 8.55609C4.53366 8.52921 4.18582 8.43234 3.86036 8.2731C3.75987 8.22389 3.67374 8.22403 3.57208 8.26457C3.31729 8.36612 3.05992 8.45832 2.8122 8.57984C2.39111 8.78651 2.24174 9.14878 2.20891 9.58312C2.19094 9.82134 2.16717 10.0576 2.06587 10.2755C1.97399 10.4732 1.81704 10.5893 1.59553 10.6108C0.875846 10.6804 0.55031 10.3868 0.602137 9.66077C0.683631 8.5209 1.27978 7.73869 2.3105 7.28749C2.58377 7.16782 2.62403 7.12707 2.62425 6.82078C2.62499 5.8529 2.6314 4.88488 2.62219 3.91709C2.61616 3.28104 2.71583 3.15388 3.35365 2.94379C4.10816 2.69526 4.89063 2.61865 5.67981 2.67061ZM4.4013 4.07134C4.26459 4.10148 4.2219 4.17943 4.22322 4.31216C4.22742 4.74762 4.22484 5.18316 4.22491 5.61862C4.22491 6.06544 4.2272 6.51226 4.22337 6.959C4.22241 7.07095 4.2576 7.13286 4.36935 7.16894C4.77866 7.30093 5.20034 7.3304 5.61606 7.25965C6.25182 7.15157 6.46523 6.82842 6.5083 6.30447C6.54533 5.85521 6.53701 5.39896 6.50874 4.94835C6.48261 4.53123 6.28627 4.20437 5.86098 4.07194C5.37526 3.9208 4.88857 3.96378 4.4013 4.07134ZM11.4175 3.96419C10.8279 4.05041 10.502 4.40524 10.4902 5.00098C10.4824 5.39321 10.4824 5.78588 10.4901 6.17811C10.5024 6.80611 10.8802 7.19539 11.4997 7.21741C11.8668 7.23044 12.2346 7.223 12.6018 7.23368C12.7361 7.23758 12.7727 7.18604 12.771 7.05719C12.765 6.59751 12.7687 6.13784 12.7687 5.67809V4.29899C12.7821 4.15305 12.7213 4.07294 12.575 4.03642C12.1926 3.94114 11.8094 3.90683 11.4175 3.96419Z" fill="black"/>
</g>
<defs>
<linearGradient id="paint0_linear_55_735" x1="48.3965" y1="204.982" x2="1803.84" y2="204.982" gradientUnits="userSpaceOnUse">
<stop stop-color="#0274A1"/>
<stop offset="0.41" stop-color="#0274A1"/>
<stop offset="1" stop-color="#0274A1"/>
</linearGradient>
<linearGradient id="paint1_linear_55_735" x1="48.3965" y1="210.303" x2="1803.84" y2="210.303" gradientUnits="userSpaceOnUse">
<stop stop-color="#0274A1"/>
<stop offset="0.41" stop-color="#0274A1"/>
<stop offset="1" stop-color="#0274A1"/>
</linearGradient>
<clipPath id="clip0_55_735">
<rect width="69" height="22" fill="white" transform="translate(0.220215)"/>
</clipPath>
</defs>
</svg>
