<svg id="light" enable-background="new 0 0 24 24" viewBox="0 0 24 24" xmlns="http://www.w3.org/2000/svg"><path d="m21.208 24c-.099 0-.196-.029-.281-.086l-3.427-2.332-3.427 2.332c-.172.116-.396.115-.568-.004-.17-.119-.249-.331-.197-.532l1.061-4.188-3.193-2.726c-.155-.133-.214-.347-.148-.54s.241-.328.445-.339l4.083-.231 1.476-4.025c.145-.394.795-.394.939 0l1.476 4.025 4.083.231c.204.011.38.146.445.339s.007.407-.148.54l-3.193 2.726 1.061 4.188c.052.201-.027.413-.197.532-.09.06-.189.09-.29.09zm-3.708-3.523c.099 0 .196.029.281.086l2.618 1.782-.813-3.211c-.047-.184.015-.379.159-.503l2.482-2.119-3.168-.18c-.199-.011-.372-.14-.441-.327l-1.118-3.052-1.119 3.053c-.069.187-.242.315-.441.327l-3.168.18 2.482 2.119c.145.124.206.319.159.503l-.813 3.211 2.618-1.782c.086-.059.183-.087.282-.087z"/><path d="m9.54 16.75c-.128 0-.256-.049-.354-.146l-4.11-4.11c-.188-.188-.196-.489-.02-.687l4.82-5.399c.03-.043.07-.085.115-.121 3.426-3.93 8.717-6.373 13.52-6.287.267.006.482.221.489.488.079 3.385-1.165 7.14-3.413 10.301-.16.226-.472.278-.697.118s-.277-.472-.117-.697c2.017-2.838 3.18-6.167 3.229-9.212-4.339.076-9.221 2.439-12.294 5.989-.021.025-.045.047-.07.067l-4.52 5.067 3.775 3.775c.195.195.195.512 0 .707-.097.098-.225.147-.353.147z"/><path d="m6.541 11.412c-.024 0-.048-.001-.072-.005l-4.787-.686c-.188-.027-.343-.157-.403-.337s-.013-.378.121-.512c2.41-2.41 5.569-3.717 8.931-3.717.276 0 .5.224.5.5s-.224.5-.5.5c-2.765 0-5.381.961-7.467 2.725l3.748.537c.273.04.463.292.424.566-.037.249-.251.429-.495.429z"/><path d="m17.133 9.367c-.668 0-1.296-.26-1.768-.732-.975-.975-.975-2.561 0-3.536.943-.944 2.589-.945 3.535 0 .975.975.975 2.561 0 3.536-.472.472-1.1.732-1.767.732zm0-3.999c-.401 0-.777.156-1.061.439-.585.585-.585 1.537 0 2.122.565.566 1.554.567 2.121 0 .585-.585.585-1.537 0-2.122-.283-.284-.66-.439-1.06-.439zm1.414 2.914h.01z"/><path d="m.5 24c-.131 0-.259-.051-.354-.146-.13-.13-.178-.321-.125-.497.163-.547 1.632-5.381 2.702-6.451 1.205-1.205 3.166-1.205 4.371 0s1.205 3.166 0 4.371c-1.07 1.07-5.903 2.539-6.451 2.703-.046.013-.095.02-.143.02zm4.409-6.999c-.535 0-1.071.204-1.479.611-.577.578-1.537 3.159-2.17 5.127 1.968-.634 4.55-1.594 5.127-2.171.815-.815.815-2.142 0-2.957-.407-.406-.943-.61-1.478-.61z"/></svg>