<?xml version="1.0"?>
<svg xmlns="http://www.w3.org/2000/svg" id="Layer_1" data-name="Layer 1" viewBox="0 0 512 512"><path d="M476.565,496.939,456.35,407.52a102.483,102.483,0,0,0-57.62-70.507L314.521,299.12V259.2c0-.077-.009-.152-.011-.228l6.739-4.9.331-.314A90.381,90.381,0,0,0,349.5,194.172h1.29a33.216,33.216,0,0,0,20.561-59.318l.017-20.2A120.044,120.044,0,0,0,341.129,34.5C321.263,12.253,295.007,0,267.2,0c-42.215,0-74.354,18.545-90.989,52.349a40.224,40.224,0,0,0-35.572,39.905v42.613a33.216,33.216,0,0,0,20.578,59.305h1.45a89.371,89.371,0,0,0,25.42,55.221l.3.309,9.092,7.223v41.827L113.3,336.631a102.476,102.476,0,0,0-57.632,70.563L35.434,496.945A12.341,12.341,0,0,0,47.472,512H464.528a12.341,12.341,0,0,0,12.037-15.061ZM273.981,326.16l30.975-15.939,22.177,9.979-19.9,49.3Zm-69.206,43.327L184.8,319.866l21.869-9.841,31.359,16.135Zm6.757-72.759V267.859a79.692,79.692,0,0,0,45.339,14.253,78.794,78.794,0,0,0,43.6-13.061v27.677l-38.887,20.01H250.419ZM350.787,180.123h-1.1V141.75h1.1a19.187,19.187,0,0,1,0,38.373ZM183.575,66.137a2.771,2.771,0,0,0,2.535-1.651l1.119-2.534c13.652-30.891,42.052-47.9,79.971-47.9,48.848,0,90.116,46.07,90.116,100.6l-.009,10.472c-15.949.482-63.234.727-89.558-11.789a202.292,202.292,0,0,1-50.267-34.454,10.729,10.729,0,0,0-16.614,2.3c-5.279,8.879-23.285,36.281-46.181,40.456V95.025A28.889,28.889,0,0,1,183.575,66.137Zm-41.545,94.8a19.208,19.208,0,0,1,19.187-19.186h1.1v38.373h-1.1A19.208,19.208,0,0,1,142.03,160.936Zm34.334,25.423v-58.41c15.938-9.7,27.884-25.751,34.443-36.111a217.825,217.825,0,0,0,50.909,34.179c20.753,9.867,51.6,12.634,73.925,13.215v49.2a76.244,76.244,0,0,1-23.4,54.818l-17,12.347a64.9,64.9,0,0,1-38.373,12.464,65.558,65.558,0,0,1-40.617-14.169l-18.439-14.647A75.489,75.489,0,0,1,176.364,186.359ZM132.979,497.951V433.005a7.025,7.025,0,0,0-14.049,0v64.946H49.609l19.768-87.667a88.364,88.364,0,0,1,49.692-60.842l52.906-23.807,24,59.619a7.576,7.576,0,0,0,13.038,1.783l13.263-17.284,9.4,15.912a9.636,9.636,0,0,1,1.19,6.588l-18.833,105.7Zm95.329,0L246.7,394.718a23.7,23.7,0,0,0-2.925-16.2L231.5,357.74l20.684-26.953h7.64l20.683,26.953-12.278,20.779a23.687,23.687,0,0,0-2.926,16.2l18.4,103.233Zm164.765,0V433.005a7.025,7.025,0,0,0-14.049,0v64.946H297.966l-18.834-105.7a9.638,9.638,0,0,1,1.19-6.587l9.4-15.913,13.264,17.285a7.576,7.576,0,0,0,13.035-1.777l23.931-59.291,53.01,23.854a88.366,88.366,0,0,1,49.681,60.794l19.744,87.333Z"/></svg>
