<?xml version="1.0" encoding="UTF-8" standalone="no"?>
<!-- Created with Inkscape (http://www.inkscape.org/) -->

<svg
   version="1.1"
   id="svg3015"
   xml:space="preserve"
   width="682.66669"
   height="682.66669"
   viewBox="0 0 682.66669 682.66669"
   xmlns="http://www.w3.org/2000/svg"
   xmlns:svg="http://www.w3.org/2000/svg"><defs
     id="defs3019"><clipPath
       clipPathUnits="userSpaceOnUse"
       id="clipPath3029"><path
         d="M 0,512 H 512 V 0 H 0 Z"
         id="path3027" /></clipPath></defs><g
     id="g3021"
     transform="matrix(1.3333333,0,0,-1.3333333,0,682.66667)"><g
       id="g3023"><g
         id="g3025"
         clip-path="url(#clipPath3029)"><g
           id="g3031"
           transform="translate(88.0549,129.8262)"><path
             d="m 0,0 c -18.662,0 -33.791,15.129 -33.791,33.791 0,18.663 15.129,33.792 33.791,33.792 18.662,0 33.791,-15.129 33.791,-33.792 C 33.791,15.129 18.662,0 0,0 Z M 56.819,82.01 C 42.412,98.028 21.546,107.336 0,107.335 -21.546,107.336 -42.412,98.028 -56.819,82.01 -93.769,40.928 -75.013,-20.259 -49.478,-61.349 -35.63,-83.633 -18.522,-103.805 0,-122.326 v 0 c 18.522,18.521 35.63,38.693 49.478,60.977 25.534,41.09 44.291,102.277 7.341,143.359 z"
             style="fill:none;stroke:#000000;stroke-width:15;stroke-linecap:round;stroke-linejoin:round;stroke-miterlimit:10;stroke-dasharray:none;stroke-opacity:1"
             id="path3033" /></g><g
           id="g3035"
           transform="translate(423.9452,397.1646)"><path
             d="m 0,0 c -18.662,0 -33.791,15.129 -33.791,33.791 0,18.663 15.129,33.792 33.791,33.792 18.662,0 33.791,-15.129 33.791,-33.792 C 33.791,15.129 18.662,0 0,0 Z"
             style="fill:none;stroke:#000000;stroke-width:15;stroke-linecap:round;stroke-linejoin:round;stroke-miterlimit:10;stroke-dasharray:none;stroke-opacity:1"
             id="path3037" /></g><g
           id="g3039"
           transform="translate(480.7644,479.1745)"><path
             d="m 0,0 c -14.407,16.018 -35.274,25.326 -56.819,25.326 -21.546,0 -42.412,-9.308 -56.819,-25.326 -36.951,-41.082 -18.194,-102.269 7.341,-143.359 13.848,-22.284 30.956,-42.456 49.478,-60.977 v 0 c 18.522,18.521 35.63,38.693 49.478,60.977 C 18.193,-102.269 36.95,-41.082 0,0 Z"
             style="fill:none;stroke:#000000;stroke-width:15;stroke-linecap:round;stroke-linejoin:round;stroke-miterlimit:10;stroke-dasharray:none;stroke-opacity:1"
             id="path3041" /></g><g
           id="g3043"
           transform="translate(280.2096,55.9625)"><path
             d="m 0,0 c 0,6.519 3.103,12.857 8.667,16.828 5.451,3.866 8.677,10.138 8.677,16.819 v 7.026 c 0,5.24 -1.995,10.289 -5.584,14.117 L 0.983,66.283 c -6.614,7.054 -7.445,17.763 -1.995,25.753 l 2.892,4.238 c 7.742,11.359 2.434,26.966 -10.614,31.251 l -31.289,10.271 c -2.873,0.945 -5.289,2.902 -6.806,5.517 l -21.458,36.912 c -4.668,8.047 -16.236,8.2 -21.124,0.277 l -5.135,-8.324 c -2.272,-3.675 -6.252,-5.851 -10.471,-5.851 -0.697,0 -1.403,0.057 -2.1,0.182 -7.112,1.221 -11.646,8.266 -9.832,15.243 l 11.111,42.534 c 0.878,3.389 3.169,6.243 6.28,7.847 l 22.642,11.654 c 4.171,2.138 6.682,6.415 6.682,10.949 0,0.888 -0.096,1.785 -0.296,2.672 -2.1,9.46 -9.717,16.705 -19.262,18.337 l -14.91,2.549 c -4.706,0.801 -9.231,2.491 -13.316,4.973 l -32.855,19.94 c -8.123,4.935 -14.108,12.733 -16.762,21.859 l -4.562,15.663 c -32.779,-38.429 -52.557,-88.265 -52.557,-142.721 0,-7.969 0.435,-15.835 1.26,-23.585 9.781,4.402 20.472,6.776 31.339,6.776 21.546,0 42.412,-9.307 56.82,-25.325 34.154,-37.975 20.711,-93.125 -1.685,-133.705 36.831,-27.763 82.657,-44.228 132.333,-44.228 4.009,0 8,0.105 11.961,0.324 L 1.556,-7.856 C 0.506,-5.307 0,-2.635 0,0 Z"
             style="fill:none;stroke:#000000;stroke-width:15;stroke-linecap:round;stroke-linejoin:round;stroke-miterlimit:10;stroke-dasharray:none;stroke-opacity:1"
             id="path3045" /></g><g
           id="g3047"
           transform="translate(477.1939,342.1244)"><path
             d="m 0,0 c -1.236,-2.149 -2.495,-4.255 -3.771,-6.309 -13.848,-22.284 -30.956,-42.456 -49.478,-60.977 v 0 c -17.232,17.232 -33.237,35.895 -46.535,56.356 0.001,-0.002 0.002,-0.003 0.003,-0.004 -1.68,-0.288 -3.408,-0.39 -5.158,-0.266 l -5.689,0.411 c -0.945,0.067 -1.88,0.095 -2.825,0.095 -11.12,0 -21.782,-4.648 -29.361,-12.905 -4.783,-5.221 -8.085,-11.617 -9.575,-18.537 l -3.426,-15.96 c -1.212,-5.622 -3.618,-10.92 -7.073,-15.511 l -18.671,-24.913 c -4.343,-5.804 -3.102,-14.041 2.768,-18.299 l 16.179,-11.731 c 3.141,-2.272 7.131,-3.026 10.892,-2.052 l 22.641,5.89 c 2.081,0.544 4.2,0.801 6.3,0.801 6.644,0 13.106,-2.634 17.888,-7.493 4.715,-4.792 11.159,-7.493 17.878,-7.493 h 12.772 c 4.104,0 8.142,-1.002 11.76,-2.93 l 12.924,-6.854 c 1.241,-0.658 2.425,-1.422 3.532,-2.281 l 42.62,-32.779 c 13.965,28.904 21.792,61.338 21.792,95.587 C 18.387,-56.806 11.818,-26.993 0,0 Z"
             style="fill:none;stroke:#000000;stroke-width:15;stroke-linecap:round;stroke-linejoin:round;stroke-miterlimit:10;stroke-dasharray:none;stroke-opacity:1"
             id="path3049" /></g><g
           id="g3051"
           transform="translate(397.6534,70.8888)"><path
             d="m 0,0 c 32.553,21.759 58.981,51.965 76.135,87.495 l -42.619,32.778 c -1.108,0.86 -2.291,1.623 -3.533,2.282 l -12.923,6.853 c -3.618,1.929 -7.656,2.931 -11.761,2.931 H -7.472 c -6.72,0 -13.163,2.701 -17.879,7.493 -4.782,4.858 -11.244,7.493 -17.887,7.493 -2.1,0 -4.22,-0.258 -6.3,-0.802 l -22.642,-5.889 c -3.76,-0.974 -7.751,-0.22 -10.891,2.052 l -16.179,11.731 c -5.871,4.257 -7.111,12.495 -2.769,18.299 l 18.671,24.913 c 3.455,4.591 5.861,9.889 7.073,15.511 l 3.427,15.96 c 1.489,6.92 4.792,13.315 9.574,18.536 7.579,8.257 18.241,12.906 29.361,12.906 0.945,0 1.881,-0.029 2.826,-0.095 l 5.689,-0.411 c 1.75,-0.125 3.477,-0.023 5.157,0.265 -0.996,1.533 -1.98,3.073 -2.945,4.626 -21.723,34.957 -38.532,84.456 -20.318,123.75 -24.417,9.345 -50.922,14.472 -78.626,14.472 -36.798,0 -71.472,-9.046 -101.951,-25.01"
             style="fill:none;stroke:#000000;stroke-width:15;stroke-linecap:round;stroke-linejoin:round;stroke-miterlimit:10;stroke-dasharray:none;stroke-opacity:1"
             id="path3053" /></g><g
           id="g3055"
           transform="translate(147.339,432.8585)"><path
             d="m 0,0 c -14.529,-10.429 -27.742,-22.575 -39.327,-36.157 v -0.01 l 4.563,-15.663 c 2.654,-9.126 8.639,-16.924 16.762,-21.859 l 32.855,-19.94 c 4.085,-2.482 8.609,-4.172 13.315,-4.973 l 14.91,-2.549 c 9.546,-1.632 17.162,-8.877 19.262,-18.337 0.201,-0.887 0.296,-1.784 0.296,-2.672 0,-4.534 -2.51,-8.811 -6.681,-10.949 l -22.642,-11.654 c -3.112,-1.604 -5.402,-4.458 -6.281,-7.847 l -11.11,-42.534 c -1.814,-6.977 2.72,-14.022 9.831,-15.243 0.697,-0.125 1.403,-0.182 2.101,-0.182 4.218,0 8.199,2.176 10.47,5.851 l 5.136,8.324 c 4.887,7.923 16.456,7.77 21.123,-0.277 l 21.459,-36.912 c 1.517,-2.615 3.932,-4.572 6.805,-5.517 l 31.29,-10.271 c 13.048,-4.285 18.355,-19.892 10.614,-31.251 l -2.892,-4.238 c -5.45,-7.99 -4.62,-18.699 1.995,-25.753 l 10.777,-11.493 c 3.589,-3.828 5.584,-8.877 5.584,-14.117 v -7.026 c 0,-6.681 -3.227,-12.953 -8.677,-16.819 -5.565,-3.971 -8.667,-10.309 -8.667,-16.828 0,-2.635 0.506,-5.307 1.556,-7.856 l 5.718,-13.879 c 29.659,1.589 57.759,9.053 83.159,21.246"
             style="fill:none;stroke:#000000;stroke-width:15;stroke-linecap:round;stroke-linejoin:round;stroke-miterlimit:10;stroke-dasharray:none;stroke-opacity:1"
             id="path3057" /></g></g></g></g></svg>
