<svg width="61" height="60" viewBox="0 0 61 60" fill="none" xmlns="http://www.w3.org/2000/svg">
<path d="M55.3844 46H33.7844C33.651 45.6 33.451 45.2 33.1844 44.8L27.9844 38.8C27.7177 38.5333 27.451 38.4 27.1844 38.4H16.9844V37.4C16.9844 37.2667 16.8844 37.1 16.6844 36.9C16.4844 36.7 16.251 36.6 15.9844 36.6H2.78438C2.51771 36.6 2.31771 36.7 2.18438 36.9C2.05104 37.1 1.98438 37.2667 1.98438 37.4V58.2C1.98438 58.4667 2.05104 58.6667 2.18438 58.8C2.31771 58.9333 2.51771 59 2.78438 59H10.3844C10.651 59 10.8844 58.9333 11.0844 58.8C11.2844 58.6667 11.3844 58.4667 11.3844 58.2V57.2H15.9844C16.251 57.2 16.4844 57.1 16.6844 56.9C16.8844 56.7 16.9844 56.4667 16.9844 56.2V55.4H23.1844L28.5844 59C28.7177 59 28.9177 59 29.1844 59L59.3844 52.4C59.7844 52.4 59.9844 52.1333 59.9844 51.6V50.6C59.9844 49.2667 59.551 48.1667 58.6844 47.3C57.8177 46.4333 56.7177 46 55.3844 46ZM9.38438 57.2H3.78438V38.4H9.38438V57.2ZM14.9844 55.4H11.3844V38.4H14.9844V55.4ZM58.1844 50.8L29.3844 57.2L23.9844 53.6C23.851 53.4667 23.7177 53.4 23.5844 53.4H16.9844V40.4H26.7844L31.7844 46C31.9177 46.1333 31.9844 46.3333 31.9844 46.6V47.8C31.9844 48.0667 31.8844 48.3 31.6844 48.5C31.4844 48.7 31.251 48.8 30.9844 48.8H29.9844C29.7177 48.8 29.451 48.6667 29.1844 48.4L25.1844 44.4L23.7844 45.6L27.9844 49.8C28.5177 50.3333 29.1844 50.6 29.9844 50.6H30.9844C31.7844 50.6 32.451 50.3333 32.9844 49.8C33.5177 49.2667 33.7844 48.6 33.7844 47.8H55.3844C56.1844 47.8 56.851 48.0667 57.3844 48.6C57.9177 49.1333 58.1844 49.8 58.1844 50.6V50.8ZM59.1844 29H57.1844V8.4C57.1844 7.6 56.9177 6.93333 56.3844 6.4C55.851 5.86666 55.1844 5.6 54.3844 5.6H47.7844L45.1844 3C44.9177 2.73333 44.651 2.6 44.3844 2.6C44.1177 2.6 43.9177 2.73333 43.7844 3L42.7844 3.8C42.251 3.53333 41.7844 3.33333 41.3844 3.2V1.8C41.3844 1.53333 41.2844 1.33333 41.0844 1.2C40.8844 1.06667 40.651 1 40.3844 1H36.5844C36.3177 1 36.0844 1.06667 35.8844 1.2C35.6844 1.33333 35.5844 1.53333 35.5844 1.8V3.2C35.1844 3.33333 34.7177 3.53333 34.1844 3.8L33.1844 3C33.051 2.73333 32.851 2.6 32.5844 2.6C32.3177 2.6 32.051 2.73333 31.7844 3L29.1844 5.6H22.5844C21.7844 5.6 21.1177 5.86666 20.5844 6.4C20.051 6.93333 19.7844 7.6 19.7844 8.4V14H2.78438C2.51771 14 2.31771 14.1 2.18438 14.3C2.05104 14.5 1.98438 14.7333 1.98438 15V26.2C1.98438 26.4667 2.05104 26.7 2.18438 26.9C2.31771 27.1 2.51771 27.2 2.78438 27.2H19.7844V29H17.7844C17.5177 29 17.3177 29.1 17.1844 29.3C17.051 29.5 16.9844 29.7333 16.9844 30V33.8C16.9844 34.6 17.251 35.2667 17.7844 35.8C18.3177 36.3333 18.9844 36.6 19.7844 36.6H57.1844C57.9844 36.6 58.651 36.3333 59.1844 35.8C59.7177 35.2667 59.9844 34.6 59.9844 33.8V30C59.9844 29.7333 59.9177 29.5 59.7844 29.3C59.651 29.1 59.451 29 59.1844 29ZM55.3844 8.4V29H53.5844V10.4C53.5844 10.1333 53.4844 9.9 53.2844 9.7C53.0844 9.5 52.851 9.4 52.5844 9.4H47.3844C47.251 8.86666 47.051 8.33333 46.7844 7.8L47.1844 7.4H54.3844C54.651 7.4 54.8844 7.5 55.0844 7.7C55.2844 7.9 55.3844 8.13333 55.3844 8.4ZM26.3844 26.2V15C26.3844 14.7333 26.2844 14.5 26.0844 14.3C25.8844 14.1 25.651 14 25.3844 14V11.2H27.1844V14C27.1844 14.2667 27.2844 14.5 27.4844 14.7C27.6844 14.9 27.9177 15 28.1844 15H29.5844C29.7177 15.5333 29.9177 16.0667 30.1844 16.6L29.1844 17.4C29.051 17.6667 28.9844 17.9333 28.9844 18.2C28.9844 18.4667 29.051 18.6667 29.1844 18.8L31.7844 21.4C32.051 21.6667 32.3177 21.8 32.5844 21.8C32.851 21.8 33.051 21.6667 33.1844 21.4L34.1844 20.4C34.7177 20.6667 35.1844 20.9333 35.5844 21.2V22.4C35.5844 22.6667 35.6844 22.9 35.8844 23.1C36.0844 23.3 36.3177 23.4 36.5844 23.4H40.3844C40.651 23.4 40.8844 23.3 41.0844 23.1C41.2844 22.9 41.3844 22.6667 41.3844 22.4V21.2C41.7844 20.9333 42.251 20.6667 42.7844 20.4L43.7844 21.4C43.9177 21.6667 44.1177 21.8 44.3844 21.8C44.651 21.8 44.9177 21.6667 45.1844 21.4L47.7844 18.8C47.9177 18.6667 47.9844 18.4667 47.9844 18.2C47.9844 17.9333 47.9177 17.6667 47.7844 17.4L46.7844 16.6C47.051 16.0667 47.251 15.5333 47.3844 15H48.7844C49.051 15 49.2844 14.9 49.4844 14.7C49.6844 14.5 49.7844 14.2667 49.7844 14V11.2H51.5844V29H25.3844V27.2C25.651 27.2 25.8844 27.1 26.0844 26.9C26.2844 26.7 26.3844 26.4667 26.3844 26.2ZM31.1844 10.6C31.3177 9.66666 31.651 8.86666 32.1844 8.2C32.451 7.8 32.3844 7.4 31.9844 7L31.1844 6.2L32.5844 4.8L33.3844 5.8C33.651 6.06667 34.051 6.06667 34.5844 5.8C35.251 5.4 35.9844 5.06667 36.7844 4.8C37.3177 4.8 37.5844 4.53333 37.5844 4V2.8H39.3844V4C39.3844 4.53333 39.651 4.8 40.1844 4.8C40.9844 5.06667 41.7177 5.4 42.3844 5.8C42.9177 6.06667 43.3177 6.06667 43.5844 5.8L44.3844 4.8L45.7844 6.2L44.9844 7C44.5844 7.4 44.5177 7.8 44.7844 8.2C45.3177 8.86666 45.651 9.66666 45.7844 10.6C45.9177 11 46.251 11.2 46.7844 11.2H47.7844V13.2H46.7844C46.251 13.2 45.9177 13.4 45.7844 13.8C45.651 14.6 45.3177 15.4 44.7844 16.2C44.5177 16.6 44.5844 17 44.9844 17.4L45.7844 18.2L44.3844 19.4L43.5844 18.6C43.3177 18.3333 42.9177 18.3333 42.3844 18.6C41.7177 19 40.9844 19.2667 40.1844 19.4C39.651 19.5333 39.3844 19.8667 39.3844 20.4V21.6H37.5844V20.4C37.5844 19.8667 37.3177 19.5333 36.7844 19.4C35.9844 19.2667 35.251 19 34.5844 18.6C34.051 18.3333 33.651 18.3333 33.3844 18.6L32.5844 19.4L31.1844 18.2L31.9844 17.4C32.3844 17 32.451 16.6 32.1844 16.2C31.651 15.4 31.3177 14.6 31.1844 13.8C31.051 13.4 30.7177 13.2 30.1844 13.2H29.1844V11.2H30.1844C30.7177 11.2 31.051 11 31.1844 10.6ZM21.5844 8.4C21.5844 8.13333 21.6844 7.9 21.8844 7.7C22.0844 7.5 22.3177 7.4 22.5844 7.4H29.7844L30.1844 7.8C29.9177 8.33333 29.7177 8.86666 29.5844 9.4H24.3844C24.1177 9.4 23.9177 9.5 23.7844 9.7C23.651 9.9 23.5177 10.1333 23.3844 10.4V14H21.5844V8.4ZM3.78438 16H24.3844V25.4H3.78438V16ZM21.5844 27.2H23.5844V29H21.5844V27.2ZM58.1844 33.8C58.1844 34.0667 58.0844 34.2667 57.8844 34.4C57.6844 34.5333 57.451 34.6 57.1844 34.6H19.7844C19.5177 34.6 19.2844 34.5333 19.0844 34.4C18.8844 34.2667 18.7844 34.0667 18.7844 33.8V31H58.1844V33.8ZM38.5844 17.8C40.051 17.8 41.351 17.2667 42.4844 16.2C43.6177 15.1333 44.1844 13.8 44.1844 12.2C44.1844 10.6 43.6177 9.26667 42.4844 8.2C41.351 7.13333 40.0177 6.6 38.4844 6.6C36.951 6.6 35.6177 7.13333 34.4844 8.2C33.351 9.26667 32.7844 10.6 32.7844 12.2C32.7844 13.8 33.351 15.1333 34.4844 16.2C35.6177 17.2667 36.9177 17.8 38.3844 17.8H38.5844ZM38.5844 8.4C39.5177 8.4 40.351 8.76667 41.0844 9.5C41.8177 10.2333 42.1844 11.1333 42.1844 12.2C42.1844 13.2667 41.8177 14.1667 41.0844 14.9C40.351 15.6333 39.4844 16 38.4844 16C37.4844 16 36.6177 15.6333 35.8844 14.9C35.151 14.1667 34.7844 13.2667 34.7844 12.2C34.7844 11.1333 35.151 10.2333 35.8844 9.5C36.6177 8.76667 37.5177 8.4 38.5844 8.4ZM8.78438 17.2L5.98438 20C5.71771 20.1333 5.58438 20.3333 5.58438 20.6C5.58438 20.8667 5.71771 21.0667 5.98438 21.2L8.78438 24.2L10.1844 22.8L7.98438 20.6L10.1844 18.4L8.78438 17.2ZM19.3844 17.2L18.1844 18.4L20.1844 20.6L18.1844 22.8L19.3844 24.2L22.1844 21.2C22.451 21.0667 22.5844 20.8667 22.5844 20.6C22.5844 20.3333 22.451 20.1333 22.1844 20L19.3844 17.2ZM11.3844 24L15.1844 16.4L16.7844 17.2L12.9844 24.8L11.3844 24Z" fill="white"/>
</svg>
