<svg width="61" height="60" viewBox="0 0 61 60" fill="none" xmlns="http://www.w3.org/2000/svg">
<path d="M25.3891 52.3992H27.1891V58.1992H25.3891V52.3992ZM34.7891 52.3992H36.5891V58.1992H34.7891V52.3992ZM55.3891 52.3992V58.1992H57.1891V52.3992C57.1891 51.1992 56.7557 50.1326 55.8891 49.1992C55.0224 48.2659 53.9224 47.7992 52.5891 47.7992H51.9891C53.0557 46.7326 53.5891 45.4659 53.5891 43.9992C53.5891 42.5326 53.0224 41.2326 51.8891 40.0992C50.7557 38.9659 49.4224 38.3992 47.8891 38.3992C46.3557 38.3992 45.0224 38.9659 43.8891 40.0992C42.7557 41.2326 42.1891 42.5326 42.1891 43.9992C42.1891 45.4659 42.6557 46.7326 43.5891 47.7992H43.1891C41.5891 47.7992 40.3224 48.4659 39.3891 49.7992C38.4557 48.4659 37.1891 47.7992 35.5891 47.7992H35.1891C36.1224 46.7326 36.5891 45.4659 36.5891 43.9992C36.5891 42.5326 36.0557 41.2326 34.9891 40.0992C33.9224 38.9659 32.5891 38.3992 30.9891 38.3992C29.3891 38.3992 28.0557 38.9659 26.9891 40.0992C25.9224 41.2326 25.3891 42.5326 25.3891 43.9992C25.3891 45.4659 25.8557 46.7326 26.7891 47.7992H26.3891C24.7891 47.7992 23.5224 48.4659 22.5891 49.7992C21.6557 48.4659 20.3891 47.7992 18.7891 47.7992H18.3891C19.3224 46.7326 19.7891 45.4659 19.7891 43.9992C19.7891 42.5326 19.2224 41.2326 18.0891 40.0992C16.9557 38.9659 15.6224 38.3992 14.0891 38.3992C12.5557 38.3992 11.2224 38.9659 10.0891 40.0992C8.95573 41.2326 8.4224 42.5326 8.48906 43.9992C8.55573 45.4659 9.05573 46.7326 9.98906 47.7992H9.38906C8.05573 47.7992 6.95573 48.2659 6.08906 49.1992C5.2224 50.1326 4.78906 51.1992 4.78906 52.3992V58.1992H6.58906V52.3992C6.58906 51.7326 6.85573 51.0992 7.38906 50.4992C7.9224 49.8992 8.58906 49.5992 9.38906 49.5992H18.7891C19.5891 49.5992 20.2557 49.8992 20.7891 50.4992C21.3224 51.0992 21.5891 51.7992 21.5891 52.5992V58.1992H23.5891V52.3992C23.5891 51.7326 23.8557 51.0992 24.3891 50.4992C24.9224 49.8992 25.5891 49.5992 26.3891 49.5992H35.5891C36.3891 49.5992 37.0557 49.8992 37.5891 50.4992C38.1224 51.0992 38.3891 51.7992 38.3891 52.5992V58.1992H40.3891V52.3992C40.3891 51.7326 40.6557 51.0992 41.1891 50.4992C41.7224 49.8992 42.3891 49.5992 43.1891 49.5992H52.5891C53.3891 49.5992 54.0557 49.8992 54.5891 50.4992C55.1224 51.0992 55.3891 51.7992 55.3891 52.5992V52.3992ZM14.1891 47.7992C13.1224 47.7992 12.2224 47.4326 11.4891 46.6992C10.7557 45.9659 10.3891 45.0992 10.3891 44.0992C10.3891 43.0992 10.7557 42.2326 11.4891 41.4992C12.2224 40.7659 13.0891 40.3992 14.0891 40.3992C15.0891 40.3992 15.9557 40.7659 16.6891 41.4992C17.4224 42.2326 17.7891 43.0992 17.7891 44.0992C17.7891 45.0992 17.4224 45.9659 16.6891 46.6992C15.9557 47.4326 15.1224 47.7992 14.1891 47.7992ZM30.9891 47.7992C29.9224 47.7992 29.0224 47.4326 28.2891 46.6992C27.5557 45.9659 27.1891 45.0992 27.1891 44.0992C27.1891 43.0992 27.5557 42.2326 28.2891 41.4992C29.0224 40.7659 29.9224 40.3992 30.9891 40.3992C32.0557 40.3992 32.9557 40.7659 33.6891 41.4992C34.4224 42.2326 34.7891 43.0992 34.7891 44.0992C34.7891 45.0992 34.4224 45.9659 33.6891 46.6992C32.9557 47.4326 32.0557 47.7992 30.9891 47.7992ZM47.7891 47.7992C46.8557 47.7992 46.0224 47.4326 45.2891 46.6992C44.5557 45.9659 44.1891 45.0992 44.1891 44.0992C44.1891 43.0992 44.5557 42.2326 45.2891 41.4992C46.0224 40.7659 46.8891 40.3992 47.8891 40.3992C48.8891 40.3992 49.7557 40.7659 50.4891 41.4992C51.2224 42.2326 51.5891 43.0992 51.5891 44.0992C51.5891 45.0992 51.2224 45.9659 50.4891 46.6992C49.7557 47.4326 48.8557 47.7992 47.7891 47.7992ZM42.1891 52.3992H44.1891V58.1992H42.1891V52.3992ZM51.5891 52.3992H53.5891V58.1992H51.5891V52.3992ZM8.58906 52.3992H10.3891V58.1992H8.58906V52.3992ZM17.7891 52.3992H19.7891V58.1992H17.7891V52.3992ZM20.5891 25.3992H24.3891C24.6557 25.3992 24.8891 25.2992 25.0891 25.0992C25.2891 24.8992 25.3891 24.6659 25.3891 24.3992L38.5891 25.3992C38.9891 25.3992 39.3891 25.1992 39.7891 24.7992C40.1891 24.3992 40.3891 23.9992 40.3891 23.5992L41.3891 15.9992C41.3891 15.4659 41.1891 14.9992 40.7891 14.5992C40.3891 14.1992 39.9224 13.9992 39.3891 13.9992H34.7891V11.7992C34.7891 11.1326 34.5891 10.5326 34.1891 9.99922C33.7891 9.46589 33.2557 9.13255 32.5891 8.99922L31.3891 8.79922C30.8557 8.66589 30.3557 8.76588 29.8891 9.09922C29.4224 9.43255 29.1891 9.93255 29.1891 10.5992V12.9992L28.3891 14.1992L25.3891 14.7992C25.2557 14.2659 24.9224 13.9992 24.3891 13.9992H20.5891C20.3224 13.9992 20.1224 14.0992 19.9891 14.2992C19.8557 14.4992 19.7891 14.7326 19.7891 14.9992V24.3992C19.7891 24.6659 19.8557 24.8992 19.9891 25.0992C20.1224 25.2992 20.3224 25.3992 20.5891 25.3992ZM25.3891 16.7992L29.3891 15.9992C29.6557 15.8659 29.8557 15.6659 29.9891 15.3992L30.9891 13.5992V13.1992V10.5992L32.1891 10.7992C32.5891 10.9326 32.7891 11.2659 32.7891 11.7992V14.9992C32.7891 15.2659 32.8891 15.4992 33.0891 15.6992C33.2891 15.8992 33.5224 15.9992 33.7891 15.9992H39.3891L38.5891 23.3992L25.3891 22.5992V16.7992ZM21.5891 15.9992H23.5891V23.3992H21.5891V15.9992ZM10.3891 17.3992C10.3891 19.7992 11.0891 22.0659 12.4891 24.1992C13.8891 26.3326 15.8891 28.1326 18.4891 29.5992C21.0891 31.0659 23.9224 32.0659 26.9891 32.5992C27.2557 32.5992 27.6557 33.0659 28.1891 33.9992C28.7224 34.9326 29.1891 35.5992 29.5891 35.9992C29.9891 36.3992 30.4557 36.5992 30.9891 36.5992C31.5224 36.5992 31.9891 36.3992 32.3891 35.9992C32.7891 35.5992 33.2557 34.9326 33.7891 33.9992C34.3224 33.0659 34.6557 32.5992 34.7891 32.5992C37.9891 32.0659 40.8891 31.0659 43.4891 29.5992C46.0891 28.1326 48.0891 26.3326 49.4891 24.1992C50.8891 22.0659 51.5891 19.7992 51.5891 17.3992C51.5891 14.5992 50.6557 11.9992 48.7891 9.59922C46.9224 7.19922 44.4224 5.29922 41.2891 3.89922C38.1557 2.49922 34.7224 1.79922 30.9891 1.79922C27.2557 1.79922 23.8224 2.49922 20.6891 3.89922C17.5557 5.29922 15.0557 7.19922 13.1891 9.59922C11.3224 11.9992 10.3891 14.5992 10.3891 17.3992ZM30.9891 3.79922C34.3224 3.79922 37.4224 4.39922 40.2891 5.59922C43.1557 6.79922 45.4557 8.43255 47.1891 10.4992C48.9224 12.5659 49.7891 14.8659 49.7891 17.3992C49.7891 20.5992 48.3557 23.4659 45.4891 25.9992C42.6224 28.5326 38.9891 30.0659 34.5891 30.5992C34.1891 30.7326 33.8224 30.9992 33.4891 31.3992C33.1557 31.7992 32.7224 32.3992 32.1891 33.1992C31.6557 33.9992 31.2557 34.4659 30.9891 34.5992C30.7224 34.4659 30.3224 33.9326 29.7891 32.9992C29.2557 32.3326 28.8224 31.7992 28.4891 31.3992C28.1557 30.9992 27.7891 30.7326 27.3891 30.5992C22.9891 30.0659 19.3557 28.5326 16.4891 25.9992C13.6224 23.4659 12.1891 20.5992 12.1891 17.3992C12.1891 14.8659 13.0557 12.5659 14.7891 10.4992C16.5224 8.43255 18.8224 6.79922 21.6891 5.59922C24.5557 4.39922 27.6557 3.79922 30.9891 3.79922Z" fill="white"/>
</svg>
